<?xml version="1.0" standalone="no"?>
<!DOCTYPE svg PUBLIC "-//W3C//DTD SVG 20010904//EN"
 "http://www.w3.org/TR/2001/REC-SVG-20010904/DTD/svg10.dtd">
<svg version="1.0" xmlns="http://www.w3.org/2000/svg"
 width="748.000000pt" height="403.000000pt" viewBox="0 0 748.000000 403.000000"
 preserveAspectRatio="xMidYMid meet">

<g transform="translate(0.000000,403.000000) scale(0.100000,-0.100000)"
fill="#000000" stroke="none">
<path d="M1500 3770 c-6 -22 -8 -55 -5 -74 7 -32 6 -33 -32 -39 -57 -9 -103
-45 -132 -102 -22 -41 -26 -63 -26 -130 1 -44 4 -97 9 -119 11 -55 -11 -44
-54 29 -20 33 -36 52 -38 43 -6 -30 41 -131 86 -186 41 -51 249 -449 239 -458
-7 -7 -153 44 -240 85 -91 41 -145 77 -188 123 -33 36 -43 36 -25 0 13 -25 72
-84 137 -137 l24 -20 -55 -6 c-30 -4 -114 -15 -187 -25 -162 -21 -261 -16
-322 16 -25 12 -75 52 -113 89 -38 37 -70 65 -73 63 -9 -9 39 -87 83 -134 26
-28 73 -64 106 -80 88 -45 141 -46 335 -8 153 30 170 32 243 22 154 -22 298
-103 399 -224 63 -76 142 -236 197 -403 37 -112 70 -261 59 -271 -2 -2 -40 7
-83 20 -43 13 -97 29 -119 35 -61 16 -176 134 -220 226 -18 38 -36 78 -39 88
-7 23 -29 12 -22 -11 2 -10 7 -31 11 -49 l6 -32 -40 16 c-22 8 -48 13 -57 9
-31 -12 8 -38 64 -44 43 -4 51 -8 56 -28 4 -13 29 -51 57 -84 28 -34 48 -64
45 -67 -3 -4 -54 2 -113 13 -118 21 -112 16 -97 90 9 45 -13 55 -43 20 -12
-15 -23 -36 -23 -47 0 -25 -18 -24 -82 5 -66 29 -82 47 -97 116 -12 56 -34 90
-58 90 -40 0 9 -118 79 -189 61 -63 139 -95 338 -140 211 -47 279 -70 347
-117 93 -64 114 -151 72 -309 -86 -329 -363 -583 -722 -662 -21 -4 -38 -12
-38 -18 0 -33 205 -30 476 6 203 26 431 29 528 5 38 -9 102 -30 143 -47 41
-17 78 -29 81 -25 10 10 -35 52 -87 80 -59 32 -198 81 -257 91 -24 4 -45 11
-49 16 -3 5 15 33 41 62 54 62 115 175 145 272 16 52 23 106 27 205 6 158 -11
290 -59 452 -16 57 -39 132 -49 168 -23 78 -24 124 -4 210 18 76 63 170 81
170 7 0 30 -21 51 -47 21 -26 50 -60 65 -76 26 -26 26 -28 5 -21 -20 6 -21 5
-7 -12 8 -10 23 -27 35 -37 20 -18 20 -19 -7 -14 -16 2 -28 0 -28 -4 0 -12 97
-11 105 1 9 15 40 12 77 -6 31 -14 37 -14 91 6 77 29 103 80 41 80 -13 0 -24
4 -24 9 0 5 -8 12 -17 14 -10 3 -3 5 15 6 17 0 32 -3 32 -8 0 -5 11 -12 25
-15 28 -7 36 -50 10 -60 -8 -3 -16 -16 -16 -28 -1 -16 -3 -18 -6 -6 -2 10 -10
15 -19 11 -7 -3 -12 -8 -10 -12 2 -3 -6 -7 -17 -9 -76 -9 -104 -8 -122 4 -23
16 -39 18 -30 4 4 -6 -1 -7 -11 -3 -10 4 -20 0 -26 -10 -10 -18 -48 -23 -48
-7 0 6 -11 10 -25 10 -18 0 -25 -5 -25 -20 0 -11 7 -23 16 -27 13 -5 13 -7 2
-14 -10 -6 -13 -37 -12 -119 0 -62 -3 -105 -7 -98 -12 19 -11 -29 1 -51 11
-22 15 -564 4 -583 -6 -10 -4 -10 9 1 22 17 28 12 20 -17 -4 -18 -8 -20 -19
-11 -11 9 -14 8 -14 -2 0 -8 4 -20 9 -27 6 -10 13 -6 27 15 10 15 19 35 19 43
0 8 8 16 18 18 22 4 76 61 77 80 0 7 15 19 33 27 30 13 31 16 8 19 -15 2 -26
16 -13 16 7 0 12 7 12 15 0 8 7 15 15 15 8 0 15 -6 15 -14 0 -14 18 -14 59 -1
23 8 24 9 5 16 -15 6 -13 8 11 8 17 1 43 8 59 16 15 8 35 15 44 15 13 0 12 3
-3 20 -21 23 -4 28 18 5 11 -11 25 -13 49 -8 l33 7 -30 8 c-17 4 -1 4 34 1 48
-4 62 -2 56 7 -8 13 72 8 160 -10 28 -6 66 -8 86 -5 23 4 45 1 58 -7 34 -21
24 -30 -15 -13 -43 18 -44 18 -44 6 0 -10 46 -22 104 -27 40 -4 60 -20 49 -38
-3 -5 -1 -6 6 -2 6 4 8 12 5 18 -8 12 0 9 43 -17 18 -11 32 -27 30 -34 -1 -8
9 -21 23 -28 14 -7 21 -13 15 -14 -5 0 1 -4 15 -8 14 -4 24 -14 24 -24 -1 -8
5 -18 12 -21 12 -5 14 69 14 464 0 302 4 471 10 475 7 4 10 -157 10 -474 0
-421 2 -481 15 -481 16 0 20 -12 8 -23 -3 -4 -12 1 -19 11 -7 9 -16 13 -21 9
-4 -5 7 -21 26 -36 23 -19 32 -32 26 -42 -6 -10 -5 -11 3 -4 15 14 18 1250 3
1250 -5 0 -24 15 -42 33 -17 18 -34 30 -37 27 -3 -3 3 -12 14 -21 17 -14 18
-15 1 -10 -10 3 -21 6 -23 6 -3 0 -9 11 -14 25 -5 14 -17 25 -26 25 -10 0 -14
-5 -10 -15 7 -20 -3 -19 -26 2 -17 15 -18 15 -18 0 0 -21 -14 -22 -29 -3 -10
11 -7 19 11 36 l23 21 -28 25 c-16 13 -32 22 -36 20 -4 -3 -22 10 -40 28 -23
24 -39 32 -54 29 -18 -4 -19 -3 -7 6 13 10 13 12 0 21 -21 14 -33 12 -27 -4 3
-8 -3 -22 -14 -32 -10 -9 -19 -12 -19 -6 0 6 4 13 9 16 14 9 1 44 -18 49 -13
4 -12 5 3 6 16 1 16 3 -7 21 -14 11 -35 20 -47 20 -15 0 -20 5 -17 14 3 7 0
13 -6 13 -7 0 -25 1 -41 1 -24 2 -27 4 -16 17 10 12 9 15 -7 15 -11 0 -33 10
-47 21 -21 17 -25 24 -14 30 10 7 9 9 -4 9 -10 0 -18 5 -18 10 0 6 -6 10 -13
10 -8 0 -22 9 -32 20 -19 21 -45 27 -45 10 0 -5 9 -10 19 -10 11 0 22 -4 26
-9 8 -15 -15 -25 -28 -12 -6 6 -19 11 -29 11 -14 0 -17 5 -12 24 9 39 -28 72
-85 75 -7 1 -11 7 -8 16 7 17 -7 28 -46 32 -34 4 -67 20 -67 34 0 23 -24 36
-45 25 -42 -23 -85 -58 -85 -70 0 -9 -18 -15 -50 -18 -36 -4 -54 -11 -69 -29
-16 -20 -17 -25 -5 -27 13 -3 14 -27 10 -160 -7 -202 -14 -260 -35 -271 -9 -5
-40 -14 -70 -20 -71 -15 -121 -44 -150 -87 -13 -19 -28 -31 -32 -27 -14 15
-32 216 -26 302 10 165 63 245 195 295 40 15 78 26 84 23 7 -2 28 2 46 9 18 7
39 11 46 8 8 -3 25 6 39 20 15 14 31 26 37 26 26 0 70 49 87 97 14 39 19 140
8 151 -10 10 -25 -20 -25 -51 0 -53 -25 -82 -103 -121 -40 -20 -85 -36 -99
-36 -15 0 -28 -5 -30 -12 -3 -7 -51 -24 -109 -38 -57 -15 -112 -30 -121 -34
-15 -7 -18 -3 -18 27 0 32 3 35 34 41 45 9 85 40 70 56 -8 8 -22 7 -54 -4 -51
-17 -60 -14 -60 22 -1 15 -7 41 -14 57 -12 28 -13 22 -18 -75 -4 -97 -8 -114
-53 -225 l-49 -120 -5 -170 -6 -170 -54 74 c-61 85 -70 110 -60 166 12 62 10
185 -3 230 l-13 40 -2 -45 c-4 -78 -25 -210 -33 -210 -10 0 -69 89 -122 185
-189 338 -224 514 -125 622 25 28 116 63 161 63 18 0 69 -9 112 -20 96 -24
134 -25 134 -5 0 31 -56 47 -140 39 -105 -9 -116 -4 -90 38 20 34 27 93 12
102 -19 12 -51 -35 -58 -84 -5 -41 -10 -50 -26 -50 -16 0 -18 4 -12 18 4 9 10
41 12 70 3 47 2 52 -17 52 -15 0 -23 -10 -31 -40z m1010 -645 c0 -8 -4 -15
-10 -15 -5 0 -7 7 -4 15 4 8 8 15 10 15 2 0 4 -7 4 -15z m-73 -31 c-3 -3 -12
-4 -19 -1 -8 3 -5 6 6 6 11 1 17 -2 13 -5z m103 -4 c0 -5 -4 -10 -10 -10 -5 0
-10 5 -10 10 0 6 5 10 10 10 6 0 10 -4 10 -10z m38 -21 c-7 -5 -19 -9 -27 -9
-11 0 -11 3 -1 14 6 8 18 12 27 9 12 -5 12 -7 1 -14z m132 -60 c0 -5 -7 -9
-15 -9 -8 0 -15 7 -15 15 0 9 6 12 15 9 8 -4 15 -10 15 -15z m50 -84 c0 -8 -2
-15 -4 -15 -2 0 -6 7 -10 15 -3 8 -1 15 4 15 6 0 10 -7 10 -15z m-100 -5 c0
-5 -4 -10 -10 -10 -5 0 -10 5 -10 10 0 6 5 10 10 10 6 0 10 -4 10 -10z m137
-6 c-3 -3 -12 -4 -19 -1 -8 3 -5 6 6 6 11 1 17 -2 13 -5z m53 -4 c0 -5 -2 -10
-4 -10 -3 0 -8 5 -11 10 -3 6 -1 10 4 10 6 0 11 -4 11 -10z m10 -70 c0 -5 -4
-10 -10 -10 -5 0 -10 5 -10 10 0 6 5 10 10 10 6 0 10 -4 10 -10z m90 -40 c0
-5 -4 -10 -9 -10 -6 0 -13 5 -16 10 -3 6 1 10 9 10 9 0 16 -4 16 -10z m94 -16
c18 -7 12 -24 -10 -24 -8 0 -14 7 -14 15 0 17 2 18 24 9z m-40 -24 c16 -16
-18 -12 -50 6 l-29 16 35 -6 c19 -4 39 -11 44 -16z m-494 -20 c0 -5 -6 -10
-14 -10 -8 0 -18 5 -21 10 -3 6 3 10 14 10 12 0 21 -4 21 -10z m101 -14 c-19
-18 -21 -18 -46 -2 -14 9 -31 14 -37 10 -6 -4 -8 -3 -5 3 3 5 29 9 56 9 50 -1
51 -1 32 -20z m49 20 c0 -3 -4 -8 -10 -11 -5 -3 -10 -1 -10 4 0 6 5 11 10 11
6 0 10 -2 10 -4z m20 -10 c0 -8 -7 -22 -16 -30 -8 -9 -13 -20 -10 -25 3 -5 -2
-8 -11 -7 -10 0 -18 -5 -19 -11 -1 -7 -2 -14 -3 -15 -1 -2 -4 -18 -6 -36 -3
-32 -2 -33 26 -27 18 4 29 2 29 -4 0 -6 -7 -8 -15 -5 -8 4 -15 1 -15 -5 0 -7
7 -14 15 -17 16 -7 21 -34 6 -34 -5 0 -16 11 -25 25 -10 14 -28 31 -41 37 -15
7 -21 16 -18 27 5 13 3 14 -8 4 -7 -7 -20 -13 -28 -13 -10 0 -6 7 11 18 37 24
118 107 118 121 0 6 2 11 5 11 3 0 5 -6 5 -14z m-130 -58 c0 -6 -7 -7 -16 -4
-8 3 -13 2 -10 -3 8 -12 -85 -48 -154 -61 -30 -6 -63 -13 -72 -16 -10 -3 -18
-1 -18 5 0 5 17 13 38 16 84 14 143 29 148 37 4 5 -9 7 -28 3 -18 -3 -44 -2
-58 4 -19 7 -5 8 55 6 44 -2 75 -1 68 2 -8 3 -7 10 5 22 17 18 42 11 42 -11z
m20 22 c0 -5 -4 -10 -9 -10 -6 0 -13 5 -16 10 -3 6 1 10 9 10 9 0 16 -4 16
-10z m582 -29 c-10 -6 -7 -12 12 -25 14 -9 33 -31 42 -49 9 -17 21 -35 26 -38
13 -8 -27 -18 -40 -10 -6 3 -10 15 -9 25 1 12 -10 24 -30 35 -18 9 -33 24 -33
34 0 9 -5 17 -11 17 -5 0 -7 5 -4 10 3 6 18 10 33 10 18 0 23 -3 14 -9z m-807
-11 c4 -6 -9 -10 -32 -9 -34 1 -35 2 -13 9 35 11 38 11 45 0z m-40 -30 c3 -5
-1 -10 -9 -10 -9 0 -16 5 -16 10 0 6 4 10 9 10 6 0 13 -4 16 -10z m58 3 c-7
-2 -21 -2 -30 0 -10 3 -4 5 12 5 17 0 24 -2 18 -5z m547 -13 c0 -5 1 -13 3
-16 1 -3 -14 -11 -34 -18 -33 -12 -36 -11 -35 6 1 10 8 23 16 28 20 13 50 13
50 0z m360 -10 c0 -5 -4 -10 -9 -10 -6 0 -13 5 -16 10 -3 6 1 10 9 10 9 0 16
-4 16 -10z m-770 -30 c0 -5 -5 -10 -11 -10 -5 0 -7 5 -4 10 3 6 8 10 11 10 2
0 4 -4 4 -10z m304 -5 c-4 -8 -8 -15 -10 -15 -2 0 -4 7 -4 15 0 8 4 15 10 15
5 0 7 -7 4 -15z m129 -5 c-3 -11 -7 -20 -9 -20 -2 0 -4 9 -4 20 0 11 4 20 9
20 5 0 7 -9 4 -20z m33 -7 c-10 -10 -19 5 -10 18 6 11 8 11 12 0 2 -7 1 -15
-2 -18z m61 1 c1 -18 -2 -23 -9 -16 -6 6 -17 8 -26 4 -11 -4 -10 0 4 15 25 28
29 28 31 -3z m33 -25 c0 -21 -2 -39 -4 -39 -2 0 -11 -3 -20 -6 -10 -4 -16 -1
-16 9 0 8 7 18 16 21 11 4 15 15 12 36 -2 16 -1 27 4 24 4 -3 8 -23 8 -45z
m77 45 c-3 -3 -12 -4 -19 -1 -8 3 -5 6 6 6 11 1 17 -2 13 -5z m-370 -26 c-3
-8 -6 -5 -6 6 -1 11 2 17 5 13 3 -3 4 -12 1 -19z m-299 -5 c-2 -13 5 -19 22
-21 24 -3 25 -3 5 12 -16 12 -17 15 -4 16 8 0 25 -11 36 -23 l20 -24 -36 3
c-20 1 -52 8 -71 16 -28 12 -31 15 -17 21 12 5 16 3 12 -6 -3 -6 0 -4 7 6 7 9
16 17 21 17 4 0 7 -8 5 -17z m350 -21 c-8 -21 -18 -30 -30 -29 -25 4 -31 14
-13 20 8 4 15 1 15 -6 1 -7 7 3 16 22 18 42 28 36 12 -7z m328 28 c9 0 14 -11
14 -31 0 -24 3 -30 16 -25 21 8 64 -4 64 -18 0 -16 -49 -36 -84 -35 -17 1 -24
3 -14 6 9 2 19 11 22 20 6 13 4 14 -9 3 -14 -12 -15 -10 -10 13 9 36 -10 60
-35 47 -24 -13 -40 -13 -40 1 0 5 5 7 10 4 6 -3 13 1 16 10 4 9 13 14 21 11 8
-3 21 -6 29 -6z m-200 -25 c-10 -8 -24 -11 -29 -8 -6 4 -2 10 9 14 31 12 40 9
20 -6z m414 -25 c0 -5 -4 -10 -10 -10 -5 0 -10 5 -10 10 0 6 5 10 10 10 6 0
10 -4 10 -10z m-704 -25 c-14 -15 -21 -15 -63 -2 l-48 15 51 -5 c34 -4 54 -1
59 6 4 7 9 10 12 7 3 -3 -2 -12 -11 -21z m102 9 c8 -2 10 -12 6 -29 -3 -14 -2
-25 2 -23 5 1 19 -1 32 -6 14 -5 33 -2 52 8 17 8 30 11 30 8 -1 -16 -18 -33
-36 -34 -34 -1 -147 31 -155 44 -7 11 -9 11 -9 0 0 -7 -5 -10 -11 -6 -16 9 10
24 41 23 14 0 19 -3 12 -6 -16 -6 -6 -23 14 -23 8 0 12 5 9 10 -3 6 -1 10 4
10 6 0 11 5 11 10 0 6 -18 10 -40 10 -22 0 -40 4 -40 10 0 8 41 6 78 -6z m601
-1 c28 7 27 -7 -1 -25 -31 -20 -46 -13 -40 18 3 17 7 22 12 13 5 -6 17 -9 29
-6z m-563 -30 c-10 -10 -19 5 -10 18 6 11 8 11 12 0 2 -7 1 -15 -2 -18z m219
-13 c-9 -17 -20 -28 -25 -25 -13 8 10 55 27 55 11 0 11 -6 -2 -30z m425 -1 c8
-15 7 -19 -3 -19 -8 0 -17 11 -19 25 -6 27 6 24 22 -6z m-1171 2 c9 -6 21 -5
31 1 10 7 25 8 36 3 11 -4 33 -7 50 -6 50 4 48 -15 -4 -32 -44 -14 -48 -14
-68 5 -21 19 -21 19 -27 -3 -6 -21 -7 -21 -29 -7 -41 28 -31 65 11 39z m1216
-10 c-3 -6 -11 -11 -17 -11 -6 0 -6 6 2 15 14 17 26 13 15 -4z m-940 -21 c23
-5 55 -15 71 -21 16 -6 52 -17 79 -25 36 -10 40 -12 14 -8 -27 3 -38 0 -43
-11 -3 -8 -13 -15 -21 -15 -9 0 -13 5 -10 10 3 6 -4 10 -17 11 -23 1 -23 1 2
8 17 5 21 9 12 15 -14 9 -51 -1 -53 -15 -1 -5 -2 -14 -3 -21 0 -6 -7 -13 -15
-16 -10 -3 -12 0 -8 12 6 15 2 16 -37 11 -35 -6 -44 -4 -50 11 -9 24 -1 28 33
14 17 -6 36 -10 43 -7 8 4 7 6 -4 6 -10 1 -18 4 -18 9 0 4 19 6 43 5 34 -2 37
-1 17 6 -14 5 -44 9 -67 10 -41 1 -59 11 -46 25 4 4 14 4 22 1 8 -3 33 -10 56
-15z m428 -7 c-7 -2 -19 -2 -25 0 -7 3 -2 5 12 5 14 0 19 -2 13 -5z m317 -4
c0 -6 -5 -19 -10 -30 -9 -16 -14 -17 -30 -6 -23 14 -27 29 -6 21 7 -3 16 2 19
10 7 18 27 22 27 5z m-959 -23 c11 -1 20 -5 20 -11 1 -18 -18 -16 -42 5 -13
12 -18 18 -10 14 7 -4 22 -7 32 -8z m757 -25 c31 -11 70 -8 101 8 17 9 24 9
35 -2 12 -12 11 -14 -12 -15 -15 0 -40 -1 -56 -2 l-30 -2 37 -34 c35 -32 36
-37 30 -79 -5 -41 -8 -45 -34 -45 -16 0 -29 4 -29 9 0 5 -16 11 -36 13 -37 4
-38 1 -20 -43 4 -8 -1 -25 -12 -37 -28 -31 -36 -27 -16 8 20 33 10 55 -12 26
-18 -25 -22 -19 -13 19 4 17 7 24 8 18 0 -7 5 -13 11 -13 11 0 6 51 -9 78 -17
32 -13 37 9 12 11 -13 20 -30 20 -39 0 -12 3 -12 12 -3 7 7 17 12 23 12 5 0 3
-5 -5 -10 -12 -8 -10 -10 10 -9 14 1 34 1 45 0 16 -1 17 -3 5 -11 -8 -5 -11
-12 -7 -16 3 -4 13 -1 22 6 17 14 21 60 5 60 -5 0 -10 6 -10 13 0 30 -83 87
-127 87 -14 0 -14 2 3 14 15 12 20 12 22 1 2 -7 15 -18 30 -24z m232 4 c0 -8
-4 -15 -10 -15 -5 0 -7 7 -4 15 4 8 8 15 10 15 2 0 4 -7 4 -15z m-873 -18 c3
-5 2 -7 -4 -4 -5 3 -26 -5 -46 -19 -20 -14 -37 -20 -37 -15 0 5 -7 17 -16 25
-14 15 -13 16 13 15 15 0 22 -3 16 -6 -7 -2 -13 -9 -13 -14 0 -5 11 -4 24 2
14 7 22 17 19 25 -6 15 34 8 44 -9z m563 -2 c0 -24 -1 -25 -23 -10 -13 8 -27
12 -32 8 -4 -5 -5 -2 -1 5 4 7 11 10 16 7 5 -3 11 -1 15 5 11 18 25 10 25 -15z
m-310 -1 c0 -8 -4 -12 -10 -9 -5 3 -10 10 -10 16 0 5 5 9 10 9 6 0 10 -7 10
-16z m145 -4 c4 -6 1 -17 -5 -25 -7 -9 -10 -34 -6 -67 4 -44 11 -58 38 -80 32
-28 55 -37 43 -18 -3 6 1 7 10 3 12 -4 13 -8 5 -13 -8 -5 -9 -13 -4 -21 5 -9
-1 -7 -16 4 -14 9 -35 22 -47 28 -12 7 -24 22 -27 35 l-6 23 -25 -25 c-28 -27
-42 -31 -42 -9 0 8 8 15 17 15 31 0 43 27 37 80 -6 52 -1 80 13 80 5 0 12 -5
15 -10z m60 0 c3 -5 12 -7 20 -3 11 4 15 -2 15 -23 0 -45 -16 -62 -24 -27 -4
15 -15 36 -23 46 -9 9 -11 17 -5 17 6 0 13 -4 17 -10z m-219 -14 c16 -16 19
-52 5 -60 -11 -7 -1 -56 11 -53 6 1 13 -4 16 -12 3 -8 -1 -12 -9 -9 -8 3 -19
-2 -26 -11 -17 -23 -25 -8 -13 24 7 18 7 39 1 62 -8 28 -7 34 4 29 9 -3 12 0
9 9 -4 9 -16 12 -41 8 -27 -5 -34 -3 -29 6 4 6 16 9 27 6 11 -4 19 -2 19 4 0
15 9 14 26 -3z m36 -31 c3 -13 1 -22 -3 -19 -9 5 -13 44 -5 44 2 0 6 -11 8
-25z m-196 -6 c-15 -4 -34 -16 -41 -25 -11 -15 -16 -16 -36 -6 l-24 12 24 -6
c16 -4 21 -3 17 5 -4 6 -1 11 7 11 8 0 20 6 26 14 7 8 21 12 34 8 20 -5 20 -6
-7 -13z m709 -56 c-7 -41 -12 -50 -21 -41 -9 9 7 78 18 78 6 0 8 -14 3 -37z
m-888 14 c16 -9 20 -16 13 -27 -8 -12 -10 -12 -16 3 -3 9 -12 17 -19 17 -8 0
-17 5 -20 10 -8 14 15 12 42 -3z m397 -37 l7 -25 -15 25 c-17 28 -21 50 -7 35
5 -6 12 -21 15 -35z m241 -50 c8 0 15 -9 15 -19 0 -11 6 -22 13 -24 6 -3 -4
-6 -23 -6 -34 0 -34 0 -15 15 14 12 16 18 7 21 -7 3 -19 11 -26 19 -8 8 -19
14 -25 14 -6 0 -11 5 -11 11 0 5 5 7 10 4 7 -4 9 3 5 22 -5 21 -1 18 15 -14
11 -24 27 -43 35 -43z m-325 61 c0 -6 -4 -13 -10 -16 -5 -3 -10 1 -10 9 0 9 5
16 10 16 6 0 10 -4 10 -9z m-128 -69 c4 -15 0 -17 -25 -14 -22 4 -28 2 -22 -8
5 -9 4 -11 -3 -6 -7 4 -12 2 -12 -5 0 -7 -2 -10 -5 -7 -4 3 -3 17 1 32 5 20
12 26 34 26 18 0 29 -6 32 -18z m348 -39 c0 -2 -11 -2 -25 -1 -23 2 -33 17
-19 31 5 4 44 -22 44 -30z m265 17 c-3 -5 -10 -10 -16 -10 -5 0 -9 5 -9 10 0
6 7 10 16 10 8 0 12 -4 9 -10z m-385 -505 c0 -8 -9 -15 -20 -15 -20 0 -26 11
-13 23 12 13 33 7 33 -8z m167 -35 c13 -22 13 -23 0 -7 -8 9 -25 17 -38 17
-13 0 -31 5 -39 10 -11 8 -5 10 24 8 29 -2 42 -9 53 -28z m-94 7 c3 -9 -6 -13
-28 -13 -19 0 -32 4 -29 8 2 4 13 5 24 3 11 -2 20 0 20 6 0 13 7 11 13 -4z
m-136 -22 c7 -21 2 -25 -25 -18 -12 3 -22 12 -22 19 0 19 39 18 47 -1z m298 5
c3 -5 1 -10 -4 -10 -6 0 -11 5 -11 10 0 6 2 10 4 10 3 0 8 -4 11 -10z m245
-30 c0 -21 -24 -28 -35 -10 -8 14 3 30 21 30 8 0 14 -9 14 -20z m-187 -7 c-7
-2 -19 -2 -25 0 -7 3 -2 5 12 5 14 0 19 -2 13 -5z m-403 -23 c0 -5 -8 -10 -18
-10 -10 0 -24 -6 -32 -12 -8 -7 -6 -3 4 10 20 23 46 30 46 12z m710 -60 c0
-23 -1 -24 -35 -8 -24 11 -25 13 -8 19 31 13 43 10 43 -11z m-956 -36 c-34
-18 -37 -18 -24 5 6 13 17 17 30 14 19 -5 19 -6 -6 -19z m997 -9 c1 -17 -18
-17 -25 0 -4 11 -1 15 10 13 8 -2 15 -7 15 -13z m-1075 -71 c-11 -35 -11 -35
-14 -8 -3 21 9 42 24 44 1 0 -4 -16 -10 -36z m74 20 c0 -3 -9 -17 -20 -31 -18
-23 -20 -23 -20 -6 0 10 5 24 12 31 13 13 28 16 28 6z"/>
<path d="M2590 2630 c0 -5 5 -10 11 -10 5 0 7 5 4 10 -3 6 -8 10 -11 10 -2 0
-4 -4 -4 -10z"/>
<path d="M3189 2489 c-10 -6 -7 -9 14 -9 29 0 35 5 14 13 -8 3 -20 1 -28 -4z"/>
<path d="M2368 2433 c7 -3 16 -2 19 1 4 3 -2 6 -13 5 -11 0 -14 -3 -6 -6z"/>
<path d="M2325 2420 c4 -6 11 -8 16 -5 14 9 11 15 -7 15 -8 0 -12 -5 -9 -10z"/>
<path d="M1794 3780 c-24 -9 -54 -47 -54 -67 0 -8 12 -13 28 -13 29 0 92 54
92 78 0 14 -35 15 -66 2z"/>
<path d="M1665 3619 c-17 -26 39 -119 71 -119 28 0 11 73 -26 110 -22 22 -36
25 -45 9z"/>
<path d="M1480 3563 c0 -52 63 -123 87 -99 12 12 -18 86 -44 105 -34 28 -43
26 -43 -6z"/>
<path d="M2390 3485 c0 -48 72 -114 91 -84 11 18 -17 62 -51 83 -34 20 -40 20
-40 1z"/>
<path d="M2555 3476 c-24 -24 -43 -72 -32 -82 11 -12 65 27 80 58 25 52 -4 68
-48 24z"/>
<path d="M2370 3374 c0 -8 5 -24 10 -35 12 -22 66 -52 79 -44 15 9 0 44 -31
70 -34 28 -58 32 -58 9z"/>
<path d="M2280 3304 c0 -8 7 -17 15 -20 8 -4 15 -14 15 -23 0 -12 -2 -13 -8
-3 -6 9 -12 5 -20 -13 -16 -35 -14 -54 3 -31 9 12 20 16 32 11 17 -6 16 -8 -3
-15 -12 -5 -25 -14 -29 -20 -11 -17 37 -2 51 16 7 8 16 14 20 13 26 -4 42 3
40 18 -3 21 -23 29 -29 11 -2 -7 -2 1 0 17 2 17 1 25 -4 19 -16 -22 -39 -23
-39 -2 1 12 -8 24 -21 29 -18 6 -23 5 -23 -7z"/>
<path d="M390 3166 c0 -85 68 -166 84 -101 13 51 -34 155 -70 155 -10 0 -14
-14 -14 -54z"/>
<path d="M547 3169 c-44 -25 -74 -142 -43 -168 30 -25 76 58 76 136 0 37 -9
45 -33 32z"/>
<path d="M1731 3154 c-21 -26 -27 -67 -15 -98 18 -46 67 19 62 81 -4 46 -20
52 -47 17z"/>
<path d="M2550 3130 c11 -20 30 -28 30 -12 0 11 -22 32 -32 32 -5 0 -4 -9 2
-20z"/>
<path d="M623 3048 c-39 -47 -56 -154 -28 -165 36 -13 80 69 73 137 -3 37 -26
51 -45 28z"/>
<path d="M282 3033 c5 -29 82 -75 126 -77 49 -1 57 6 41 32 -20 32 -82 62
-129 62 -34 0 -41 -3 -38 -17z"/>
<path d="M721 2974 c-43 -30 -79 -142 -51 -159 17 -10 77 58 89 100 21 76 10
92 -38 59z"/>
<path d="M345 2895 c-17 -9 -36 -25 -44 -36 -18 -30 1 -41 59 -34 48 7 84 27
108 63 14 22 14 22 -39 22 -30 0 -68 -7 -84 -15z"/>
<path d="M440 2805 c-56 -18 -102 -61 -80 -75 21 -13 39 -12 98 5 52 16 79 43
68 71 -7 17 -27 17 -86 -1z"/>
<path d="M489 2695 c-20 -13 -39 -31 -42 -39 -17 -43 113 -27 159 19 36 36 30
45 -29 45 -39 0 -61 -6 -88 -25z"/>
<path d="M3687 2473 c-4 -3 -7 -368 -7 -810 l0 -803 668 0 c367 0 1123 -3
1680 -7 661 -4 1012 -3 1012 4 0 5 -34 24 -76 43 -41 18 -101 50 -133 70 -31
20 -95 52 -141 71 -47 19 -87 37 -90 40 -12 13 -253 72 -245 59 2 -4 -26 -10
-63 -14 -37 -3 -128 -17 -202 -30 -150 -27 -273 -38 -264 -25 3 5 18 9 34 9
l30 0 -3 205 c-1 113 1 205 5 205 4 0 9 -44 11 -97 3 -91 3 -90 3 17 -1 86 -4
114 -13 112 -7 -1 -13 3 -13 9 0 6 7 9 15 5 8 -3 15 -1 15 5 0 6 9 8 21 4 15
-5 19 -4 15 4 -4 6 -1 11 8 11 9 0 13 6 10 14 -3 8 -1 17 5 21 7 3 11 -2 11
-14 0 -16 6 -21 26 -21 16 0 23 -4 18 -12 -4 -7 -3 -8 4 -4 7 4 12 13 12 21 0
8 5 17 11 21 14 8 8 -38 -6 -49 -5 -5 3 -6 18 -2 17 3 35 1 43 -6 10 -8 14 -8
14 0 0 18 26 12 52 -12 24 -23 38 -84 15 -70 -5 3 -8 0 -6 -6 3 -7 9 -13 14
-13 17 0 36 -21 31 -34 -3 -8 0 -11 10 -7 7 3 14 1 14 -5 0 -6 -5 -12 -12 -14
-8 -3 -5 -11 10 -23 12 -11 23 -31 23 -45 1 -17 3 -19 6 -7 6 23 40 22 53 -3
6 -11 8 -31 6 -45 -3 -14 -1 -25 3 -25 5 0 11 -14 15 -32 3 -17 9 -28 12 -25
4 3 13 -1 22 -9 11 -12 27 -14 61 -9 33 4 42 3 31 -4 -12 -9 -11 -11 7 -11 12
0 53 -12 90 -26 37 -14 73 -26 80 -26 7 -1 10 -5 7 -9 -2 -4 10 -11 28 -14 18
-4 43 -14 55 -22 12 -8 28 -13 35 -10 8 3 6 6 -5 6 -10 1 -17 7 -15 14 2 6 -8
30 -22 52 -13 22 -28 48 -32 58 -4 9 -12 17 -17 17 -6 0 -18 25 -26 55 -17 56
-31 76 -22 30 3 -16 0 -24 -7 -22 -6 2 -11 24 -11 48 0 24 -5 53 -12 64 -11
18 -12 18 -13 3 0 -10 -4 -18 -10 -18 -5 0 -6 7 -3 17 5 12 3 14 -7 8 -10 -6
-12 -1 -7 21 3 17 1 36 -4 44 -8 11 -9 9 -4 -7 4 -14 2 -23 -4 -23 -14 0 -25
45 -15 61 5 9 2 10 -10 6 -14 -6 -16 -3 -11 13 5 15 3 18 -9 14 -10 -4 -15 2
-18 17 -4 26 -28 39 -28 14 0 -24 -17 -10 -22 19 -4 19 -1 23 11 18 10 -3 12
-2 6 4 -5 5 -13 13 -16 17 -3 5 -14 1 -23 -9 -15 -14 -19 -15 -27 -3 -6 10 -4
15 7 17 22 5 12 26 -14 30 -13 2 -22 11 -22 20 0 13 -2 14 -9 3 -6 -10 -10
-10 -16 -1 -4 7 -18 9 -37 5 -25 -6 -29 -4 -26 12 2 10 13 19 26 21 12 2 26
12 32 22 6 12 31 22 75 30 58 11 64 14 48 26 -10 7 -38 14 -63 15 -30 1 -36 3
-17 6 26 4 39 23 15 23 -16 0 -1 13 18 16 9 2 18 -5 21 -15 6 -24 62 -45 70
-25 3 7 9 11 14 8 5 -3 9 8 9 24 0 31 26 62 53 62 8 0 18 8 20 18 4 16 5 16 6
0 0 -10 6 -18 11 -18 16 0 12 37 -6 54 -8 9 -13 22 -11 29 4 9 6 9 6 0 1 -7 8
-13 17 -13 10 0 14 -6 10 -15 -3 -8 -1 -15 4 -15 9 0 22 32 19 46 -2 5 3 28
11 52 12 37 11 47 -3 77 -9 19 -21 35 -26 35 -5 0 -11 9 -14 20 -7 26 0 25 24
-2 l19 -23 -2 37 c-1 27 -8 40 -20 44 -10 3 -18 10 -18 16 0 6 6 6 15 -2 28
-23 17 25 -11 49 -21 18 -24 25 -13 32 9 6 10 9 2 9 -6 0 -15 -4 -18 -10 -3
-5 -11 -10 -17 -10 -7 0 -6 5 2 15 10 12 7 20 -18 44 -16 17 -27 33 -23 36 3
4 -7 3 -23 -1 -24 -6 -28 -4 -23 9 5 14 1 15 -26 10 -28 -6 -30 -4 -19 9 10
13 8 16 -19 22 -17 3 -52 6 -78 7 -38 1 -42 2 -21 9 23 7 23 8 3 9 -12 1 -25
-4 -28 -9 -3 -6 -25 -8 -48 -6 -23 2 -102 5 -175 5 -98 1 -131 4 -126 13 5 8
-11 9 -62 5 -38 -4 -113 -7 -166 -7 l-98 0 -1 -237 c0 -131 -4 -256 -8 -278
-6 -25 -9 66 -10 245 -1 188 -5 280 -11 270 -6 -9 -10 -145 -10 -332 0 -175
-3 -318 -7 -318 -5 0 -8 147 -7 327 l0 328 -6 -320 c-3 -176 -7 -321 -8 -322
-5 -7 -412 -2 -412 5 0 4 -11 8 -25 8 -17 1 -25 -3 -25 -14 0 -15 -2 -15 -17
1 -16 15 -16 18 0 35 22 24 22 33 0 26 -17 -5 -17 -5 0 6 18 11 25 46 7 35 -7
-4 -10 72 -10 219 0 144 4 226 10 226 6 0 10 22 10 49 l0 49 -112 -4 c-62 -2
-129 -6 -148 -8 -19 -2 -29 -2 -22 1 18 7 15 22 -5 19 -17 -3 -18 -41 -20
-622 -1 -613 1 -699 18 -673 7 11 9 11 10 -1 0 -10 3 -8 9 5 7 16 9 17 9 3 1
-11 12 -19 34 -22 90 -14 116 -15 121 -7 3 5 15 7 26 4 11 -3 17 -9 14 -14 -3
-5 4 -9 15 -9 12 0 21 -5 21 -11 0 -7 -10 -9 -27 -4 -16 4 -39 9 -53 11 -14 2
-68 11 -120 20 -72 12 -183 17 -467 21 l-373 5 0 179 0 179 258 2 257 3 0 145
0 145 -255 5 -255 5 -3 173 -2 172 264 0 c145 0 271 3 280 6 24 9 24 289 0
298 -21 8 -889 8 -897 -1z m2236 -40 c-7 -2 -21 -2 -30 0 -10 3 -4 5 12 5 17
0 24 -2 18 -5z m552 -83 c-19 -8 -18 -9 4 -9 13 -1 22 -4 18 -7 -3 -4 -18 -3
-32 0 -30 8 -24 26 8 25 21 0 21 -1 2 -9z m-1648 -843 c-1 -155 -2 -28 -2 283
0 311 1 438 2 282 2 -155 2 -409 0 -565z m1723 788 c0 -7 6 -16 13 -18 7 -4 6
-6 -4 -6 -10 -1 -19 9 -21 24 -3 13 -1 22 3 19 5 -3 9 -11 9 -19z m-70 -15 c0
-5 -2 -10 -4 -10 -3 0 -8 5 -11 10 -3 6 -1 10 4 10 6 0 11 -4 11 -10z m-1400
-186 c0 -114 -3 -173 -10 -169 -6 4 -10 73 -10 176 0 106 4 169 10 169 6 0 10
-65 10 -176z m803 164 c4 -9 8 -10 14 -2 10 13 340 17 348 4 6 -9 -10 -11 -55
-9 -126 7 -269 2 -283 -10 -9 -7 -15 -17 -12 -21 3 -5 1 -11 -4 -14 -5 -3 -12
6 -16 21 -5 21 -8 24 -16 12 -10 -16 -12 -8 -3 15 7 19 20 21 27 4z m457 -25
c0 -10 -7 -14 -20 -10 -11 3 -20 0 -20 -6 0 -6 -2 -8 -5 -5 -3 3 0 17 6 32 9
20 15 23 26 15 7 -6 13 -18 13 -26z m-132 -15 c26 -11 53 -21 60 -21 7 0 11
-6 8 -14 -3 -7 0 -13 7 -13 17 0 52 -47 62 -85 12 -43 15 -141 4 -124 -6 10
-9 8 -9 -8 0 -13 5 -23 11 -23 7 0 9 -8 4 -22 -3 -13 -7 -29 -7 -36 -1 -7 -6
-11 -12 -9 -12 5 -12 9 -1 42 6 18 4 17 -14 -3 l-21 -24 23 -18 22 -19 -25 -9
c-14 -5 -40 -8 -59 -6 -29 4 -32 3 -21 -11 15 -19 24 -18 -152 -19 -76 -1
-138 2 -138 7 0 4 -7 7 -16 7 -8 0 -12 -4 -9 -10 3 -5 1 -10 -5 -10 -7 0 -10
7 -7 15 8 18 -13 32 -23 15 -4 -7 -7 2 -5 21 2 19 3 105 4 192 1 90 5 156 10
153 5 -3 12 5 15 18 7 30 21 33 149 35 81 1 106 -3 145 -21z m399 -20 c-3 -8
-6 -5 -6 6 -1 11 2 17 5 13 3 -3 4 -12 1 -19z m-779 -27 c2 -12 10 -25 18 -28
24 -9 17 -35 -8 -31 -20 3 -22 8 -20 37 2 20 -2 38 -10 43 -10 8 -10 9 2 5 8
-2 16 -14 18 -26z m592 -11 c0 -5 -2 -10 -4 -10 -3 0 -8 5 -11 10 -3 6 -1 10
4 10 6 0 11 -4 11 -10z m-60 -20 c0 -5 -4 -10 -10 -10 -5 0 -10 5 -10 10 0 6
5 10 10 10 6 0 10 -4 10 -10z m-540 -110 c0 -47 -4 -80 -10 -80 -6 0 -10 33
-10 80 0 47 4 80 10 80 6 0 10 -33 10 -80z m620 10 c0 -5 -4 -10 -10 -10 -5 0
-10 5 -10 10 0 6 5 10 10 10 6 0 10 -4 10 -10z m106 -115 c-11 -8 -14 -15 -7
-15 7 0 9 -4 6 -10 -3 -5 -11 -10 -16 -10 -6 0 -7 5 -4 10 3 6 0 10 -7 10 -7
1 -2 7 12 15 32 19 40 18 16 0z m-1526 -25 c0 -5 -5 -10 -11 -10 -5 0 -7 5 -4
10 3 6 8 10 11 10 2 0 4 -4 4 -10z m54 -32 c4 -24 3 -38 -4 -38 -5 0 -10 7
-10 16 0 8 -4 12 -10 9 -14 -9 -13 28 2 43 14 14 14 15 22 -30z m776 17 c7 -9
8 -15 2 -15 -5 0 -12 7 -16 15 -3 8 -4 15 -2 15 2 0 9 -7 16 -15z m641 -19 c5
3 9 1 9 -5 0 -15 -20 -24 -21 -9 0 7 -5 2 -10 -11 -5 -13 -12 -22 -15 -19 -2
3 1 18 8 33 7 15 14 22 16 16 2 -6 8 -9 13 -5z m-855 -18 c-3 -13 -6 -31 -6
-40 0 -10 -3 -18 -8 -18 -4 0 -6 18 -4 40 2 22 9 40 14 40 6 0 8 -10 4 -22z
m231 -50 c-3 -8 -6 -5 -6 6 -1 11 2 17 5 13 3 -3 4 -12 1 -19z m441 -60 c-3
-7 -13 -15 -24 -17 -16 -3 -17 -1 -5 13 16 19 34 21 29 4z m-1 -34 c-3 -3 -12
-4 -19 -1 -8 3 -5 6 6 6 11 1 17 -2 13 -5z m-1247 -90 c0 -8 -4 -12 -10 -9 -5
3 -10 10 -10 16 0 5 5 9 10 9 6 0 10 -7 10 -16z m760 6 c0 -5 -4 -10 -10 -10
-5 0 -10 5 -10 10 0 6 5 10 10 10 6 0 10 -4 10 -10z m252 -12 c-7 -7 -12 -8
-12 -2 0 14 12 26 19 19 2 -3 -1 -11 -7 -17z m88 13 c0 -5 -9 -11 -20 -14 -13
-3 -20 0 -20 9 0 8 9 14 20 14 11 0 20 -4 20 -9z m60 -1 c0 -5 -4 -10 -10 -10
-5 0 -10 5 -10 10 0 6 5 10 10 10 6 0 10 -4 10 -10z m54 -6 c4 -9 4 -19 2 -22
-10 -9 -36 8 -36 23 0 20 26 19 34 -1z m-1258 -72 c-13 -12 -17 8 -10 40 l9
33 3 -33 c2 -19 1 -36 -2 -40z m563 54 c16 -9 20 -16 12 -20 -7 -4 -19 -2 -27
5 -18 15 -61 -4 -61 -27 0 -17 2 -17 44 -5 38 11 53 -1 53 -43 0 -24 -3 -27
-10 -16 -6 10 -10 -58 -10 -200 0 -118 4 -220 8 -227 4 -6 30 -14 57 -16 28
-3 -29 -3 -125 -1 -183 4 -365 25 -403 46 -12 7 -23 21 -23 30 -1 10 2 15 7
12 5 -3 9 0 9 5 0 6 -4 11 -10 11 -5 0 -10 69 -12 165 -2 91 0 165 4 165 4 0
9 -21 11 -47 l3 -48 2 55 c1 31 -2 60 -7 65 -14 14 -23 73 -12 79 4 3 18 -2
29 -12 19 -17 19 -19 4 -31 -15 -11 -15 -11 3 -4 11 4 96 9 188 11 l169 3 -6
24 c-5 19 -3 22 13 18 11 -3 28 0 38 6 23 13 23 13 52 -3z m769 -6 c10 -16 10
-20 0 -21 -7 0 -4 -4 7 -9 20 -8 20 -9 -1 -9 -24 -1 -59 33 -49 48 10 17 29
13 43 -9z m-718 -72 c0 -23 -3 -29 -11 -21 -6 6 -8 20 -4 32 9 30 15 26 15
-11z m810 6 c0 -2 -7 -4 -15 -4 -8 0 -15 4 -15 10 0 5 7 7 15 4 8 -4 15 -8 15
-10z m-589 -11 c13 -16 12 -17 -3 -4 -10 7 -18 15 -18 17 0 8 8 3 21 -13z
m429 -23 c0 -4 -6 -10 -14 -13 -10 -4 -12 0 -9 14 5 18 23 18 23 -1z m123 3
c-7 -2 -19 -2 -25 0 -7 3 -2 5 12 5 14 0 19 -2 13 -5z m-1349 -19 c3 -8 2 -12
-4 -9 -6 3 -10 10 -10 16 0 14 7 11 14 -7z m1416 0 c0 -2 -7 -4 -15 -4 -8 0
-15 4 -15 10 0 5 7 7 15 4 8 -4 15 -8 15 -10z m-850 -407 c17 -4 16 -4 -2 -3
l-23 1 0 203 -1 202 3 -199 c3 -190 4 -200 23 -204z m19 211 c-2 -98 -6 -181
-11 -184 -4 -3 -8 81 -8 186 0 133 3 189 11 185 7 -5 10 -67 8 -187z m223 135
c-5 -101 -9 -111 -11 -25 0 45 2 82 7 82 4 0 6 -26 4 -57z m669 -40 c8 -10 9
-14 2 -10 -6 4 -15 2 -19 -4 -6 -11 -23 6 -24 24 0 13 27 7 41 -10z m-251 -13
c0 -5 -5 -10 -11 -10 -5 0 -7 5 -4 10 3 6 8 10 11 10 2 0 4 -4 4 -10z m340
-54 c0 -8 -4 -18 -10 -21 -5 -3 -10 3 -10 14 0 12 5 21 10 21 6 0 10 -6 10
-14z m-1540 -77 c0 -48 -4 -69 -12 -69 -9 0 -8 -3 2 -10 8 -5 11 -12 7 -17
-16 -15 -22 17 -19 96 4 99 22 99 22 0z m740 6 c0 -43 -4 -75 -10 -75 -6 0
-10 32 -10 75 0 43 4 75 10 75 6 0 10 -32 10 -75z m550 60 c0 -8 -4 -15 -10
-15 -5 0 -10 7 -10 15 0 8 5 15 10 15 6 0 10 -7 10 -15z m240 -95 c-20 -12
-22 -7 -14 26 7 28 7 28 17 5 8 -17 7 -25 -3 -31z m-35 -61 c-18 -5 -33 -5
-39 1 -7 7 4 10 30 9 39 -1 39 -1 9 -10z m120 -9 c4 -6 4 -18 1 -27 -5 -13 -9
-12 -26 7 -11 13 -20 25 -20 27 0 8 39 2 45 -7z m-90 -10 c-3 -5 -10 -10 -16
-10 -5 0 -9 5 -9 10 0 6 7 10 16 10 8 0 12 -4 9 -10z m-768 -6 c-3 -3 -12 -4
-19 -1 -8 3 -5 6 6 6 11 1 17 -2 13 -5z m-63 -49 c31 -13 31 -13 5 -14 -14 -1
-47 2 -73 5 -41 6 -44 8 -29 20 19 15 46 12 97 -11z m950 16 c3 -5 -1 -11 -9
-14 -9 -4 -12 -1 -8 9 6 16 10 17 17 5z"/>
<path d="M6013 2213 c31 -2 83 -2 115 0 31 2 5 3 -58 3 -63 0 -89 -1 -57 -3z"/>
<path d="M5710 1070 c8 -5 22 -9 30 -9 10 0 8 3 -5 9 -27 12 -43 12 -25 0z"/>
<path d="M4783 2400 c0 -30 2 -43 4 -27 2 15 2 39 0 55 -2 15 -4 2 -4 -28z"/>
<path d="M6118 2443 c12 -2 32 -2 45 0 12 2 2 4 -23 4 -25 0 -35 -2 -22 -4z"/>
<path d="M6203 2443 c9 -2 25 -2 35 0 9 3 1 5 -18 5 -19 0 -27 -2 -17 -5z"/>
<path d="M1196 2155 c-22 -23 -42 -93 -29 -106 16 -16 38 -1 56 37 32 65 14
109 -27 69z"/>
<path d="M1266 2099 c-18 -21 -26 -42 -26 -70 0 -21 4 -39 9 -39 21 0 61 63
61 95 0 46 -13 51 -44 14z"/>
<path d="M4783 1870 c0 -47 2 -66 4 -42 2 23 2 61 0 85 -2 23 -4 4 -4 -43z"/>
<path d="M6566 1824 c-23 -23 -20 -30 4 -9 11 10 20 20 20 22 0 7 -9 2 -24
-13z"/>
<path d="M2271 1724 c0 -11 3 -14 6 -6 3 7 2 16 -1 19 -3 4 -6 -2 -5 -13z"/>
<path d="M6126 1511 c-3 -5 6 -16 20 -26 26 -17 41 -15 29 4 -10 17 -43 32
-49 22z"/>
<path d="M6290 1278 c1 -7 7 -24 15 -38 15 -26 19 -12 9 28 -7 23 -24 31 -24
10z"/>
<path d="M4783 1195 c0 -22 2 -30 4 -17 2 12 2 30 0 40 -3 9 -5 -1 -4 -23z"/>
<path d="M3491 1204 c0 -11 3 -14 6 -6 3 7 2 16 -1 19 -3 4 -6 -2 -5 -13z"/>
<path d="M5901 1114 c0 -11 3 -14 6 -6 3 7 2 16 -1 19 -3 4 -6 -2 -5 -13z"/>
<path d="M1154 617 c-2 -7 -3 -76 -2 -152 l3 -140 158 -3 c130 -2 164 0 192
14 32 15 35 20 35 62 0 28 -6 52 -17 64 -15 17 -15 19 0 36 24 26 22 87 -3
112 -18 18 -33 20 -190 20 -131 0 -172 -3 -176 -13z m296 -77 l0 -31 -102 3
c-95 3 -103 5 -104 23 0 11 1 23 3 28 2 4 49 7 104 7 l99 0 0 -30z m0 -120 c0
-17 -5 -30 -12 -30 -7 -1 -44 -2 -83 -3 -89 -4 -113 4 -109 35 1 12 3 24 3 26
1 1 46 2 101 2 l100 0 0 -30z"/>
<path d="M1690 475 l0 -155 45 0 45 0 0 155 0 155 -45 0 -45 0 0 -155z"/>
<path d="M1950 475 l0 -155 183 2 182 3 0 30 0 30 -137 3 -138 3 0 29 0 30 80
0 80 0 0 30 0 29 -77 3 c-77 3 -78 3 -81 31 l-3 27 134 0 c73 0 136 2 139 5 3
3 3 17 0 30 l-4 25 -179 0 -179 0 0 -155z"/>
<path d="M2454 617 c-2 -7 -3 -76 -2 -152 l3 -140 43 -3 42 -3 0 95 c0 53 2
96 5 96 2 0 64 -43 137 -95 107 -77 139 -95 163 -93 l30 3 0 150 0 150 -40 0
-40 0 -5 -93 -5 -93 -134 95 c-95 69 -142 96 -162 96 -16 0 -32 -6 -35 -13z"/>
<path d="M3044 617 c-2 -7 -3 -76 -2 -152 l3 -140 183 -3 182 -2 0 34 0 35
-137 3 -138 3 0 25 c0 24 3 25 80 30 77 5 80 6 80 30 0 24 -3 25 -80 30 -77 5
-80 6 -80 30 l0 25 138 3 137 3 0 29 0 30 -180 0 c-139 0 -182 -3 -186 -13z"/>
<path d="M3583 618 c-25 -12 -38 -64 -27 -111 11 -55 16 -57 154 -57 133 0
158 -8 144 -44 -9 -23 -222 -24 -230 -1 -6 15 -40 20 -68 9 -20 -8 -20 -43 0
-69 14 -19 27 -20 184 -20 196 0 199 1 200 91 0 88 -11 95 -165 97 l-130 2 -3
28 -3 27 105 0 c88 0 106 -3 106 -15 0 -15 10 -19 45 -15 30 3 44 18 38 41
-11 42 -39 49 -188 48 -77 0 -150 -5 -162 -11z"/>
<path d="M4360 474 l0 -155 43 3 42 3 3 53 3 52 36 0 c29 0 50 -11 104 -55 69
-56 69 -56 132 -53 l62 3 -43 30 c-24 17 -56 40 -70 52 l-27 21 37 7 c51 10
59 23 59 96 1 97 -4 99 -212 99 l-169 0 0 -156z m288 59 c4 -40 -14 -46 -119
-41 l-74 3 -3 38 -3 38 98 -3 98 -3 3 -32z"/>
<path d="M4987 598 c-36 -48 -177 -264 -177 -272 0 -3 20 -6 45 -6 39 0 46 3
60 30 l16 30 112 0 113 0 17 -30 c16 -27 23 -30 68 -30 27 0 49 3 49 8 0 4
-44 72 -98 152 -97 145 -97 145 -139 148 -37 3 -44 -1 -66 -30z m87 -88 c14
-22 26 -44 26 -50 0 -6 -24 -10 -55 -10 -30 0 -55 3 -55 7 0 8 49 93 54 93 2
0 15 -18 30 -40z"/>
<path d="M5395 608 c-3 -13 -4 -81 -3 -153 l3 -130 45 0 45 0 0 150 0 150 -42
3 c-37 3 -43 0 -48 -20z"/>
<path d="M5669 611 c-23 -18 -24 -25 -24 -135 0 -156 -8 -150 190 -154 154 -3
155 -3 180 22 17 17 25 36 25 60 0 32 -2 35 -40 41 -40 7 -64 0 -55 -15 3 -4
2 -15 -1 -24 -5 -13 -24 -16 -105 -16 l-100 0 3 88 3 87 93 3 93 3 10 -31 c12
-32 29 -37 73 -20 34 13 35 52 1 85 -23 24 -28 25 -173 25 -133 0 -153 -2
-173 -19z"/>
<path d="M6194 617 c-2 -7 -3 -76 -2 -152 l3 -140 183 -3 183 -2 -3 32 -3 33
-132 3 -133 3 0 29 0 29 78 3 c76 3 77 3 80 31 l3 27 -80 0 -81 0 0 30 0 30
135 0 135 0 0 30 0 30 -180 0 c-139 0 -182 -3 -186 -13z"/>
<path d="M6725 605 c-28 -27 -33 -83 -12 -125 12 -24 15 -25 152 -30 l140 -5
0 -25 0 -25 -113 -3 c-93 -2 -113 0 -118 13 -12 31 -84 15 -84 -19 1 -55 33
-66 202 -66 177 0 192 6 196 75 4 64 -4 92 -30 106 -12 7 -73 12 -142 13
l-121 1 0 25 c0 25 1 25 103 28 83 2 102 0 102 -12 0 -19 19 -24 58 -14 38 10
41 30 7 63 -23 24 -28 25 -170 25 -142 0 -147 -1 -170 -25z"/>
</g>
</svg>
